<mxfile host="app.diagrams.net" modified="2023-10-29T19:48:03.499Z" agent="Mozilla/5.0 (X11; Linux x86_64; rv:109.0) Gecko/20100101 Firefox/115.0" etag="Bpq11MgbG_bcWrrhK-vX" version="22.0.8" type="github">
  <diagram name="Page-1" id="38b20595-45e3-9b7f-d5ca-b57f44c5b66d">
    <mxGraphModel dx="1420" dy="842" grid="1" gridSize="10" guides="1" tooltips="1" connect="1" arrows="1" fold="1" page="1" pageScale="1" pageWidth="1169" pageHeight="827" background="none" math="0" shadow="0">
      <root>
        <mxCell id="0" />
        <mxCell id="1" parent="0" />
        <mxCell id="DVu48KI71VsZCIkEHZR0-2" value="" style="verticalLabelPosition=bottom;html=1;verticalAlign=top;align=center;shape=mxgraph.floorplan.wall;fillColor=strokeColor;direction=south;" parent="1" vertex="1">
          <mxGeometry x="101" y="225" width="10" height="780" as="geometry" />
        </mxCell>
        <mxCell id="DVu48KI71VsZCIkEHZR0-3" value="" style="rounded=0;whiteSpace=wrap;html=1;fillColor=#ABA2B0;strokeColor=#9673a6;" parent="1" vertex="1">
          <mxGeometry x="111" y="225" width="320" height="160" as="geometry" />
        </mxCell>
        <mxCell id="DVu48KI71VsZCIkEHZR0-5" value="" style="rounded=0;whiteSpace=wrap;html=1;fillColor=#ABA2B0;strokeColor=#9673a6;" parent="1" vertex="1">
          <mxGeometry x="461" y="225" width="160" height="160" as="geometry" />
        </mxCell>
        <mxCell id="DVu48KI71VsZCIkEHZR0-9" value="" style="verticalLabelPosition=bottom;html=1;verticalAlign=top;align=center;shape=mxgraph.floorplan.wall;fillColor=strokeColor;" parent="1" vertex="1">
          <mxGeometry x="111" y="995" width="80" height="10" as="geometry" />
        </mxCell>
        <mxCell id="DVu48KI71VsZCIkEHZR0-10" value="" style="verticalLabelPosition=bottom;html=1;verticalAlign=top;align=center;shape=mxgraph.floorplan.wall;fillColor=strokeColor;" parent="1" vertex="1">
          <mxGeometry x="371" y="995" width="60" height="10" as="geometry" />
        </mxCell>
        <mxCell id="DVu48KI71VsZCIkEHZR0-13" value="" style="verticalLabelPosition=bottom;html=1;verticalAlign=top;align=center;shape=mxgraph.floorplan.wall;fillColor=strokeColor;direction=south;" parent="1" vertex="1">
          <mxGeometry x="621" y="225" width="10" height="780" as="geometry" />
        </mxCell>
        <mxCell id="DVu48KI71VsZCIkEHZR0-14" value="" style="verticalLabelPosition=bottom;html=1;verticalAlign=top;align=center;shape=mxgraph.floorplan.wall;fillColor=strokeColor;" parent="1" vertex="1">
          <mxGeometry x="571" y="995" width="50" height="10" as="geometry" />
        </mxCell>
        <mxCell id="DVu48KI71VsZCIkEHZR0-15" value="" style="verticalLabelPosition=bottom;html=1;verticalAlign=top;align=center;shape=mxgraph.floorplan.doorDouble;aspect=fixed;" parent="1" vertex="1">
          <mxGeometry x="191" y="995" width="180" height="95.63" as="geometry" />
        </mxCell>
        <mxCell id="DVu48KI71VsZCIkEHZR0-16" value="" style="verticalLabelPosition=bottom;html=1;verticalAlign=top;align=center;shape=mxgraph.floorplan.window;" parent="1" vertex="1">
          <mxGeometry x="461" y="995" width="110" height="10" as="geometry" />
        </mxCell>
        <mxCell id="DVu48KI71VsZCIkEHZR0-18" value="&lt;div&gt;625&lt;/div&gt;" style="shape=dimension;direction=south;whiteSpace=wrap;html=1;align=center;points=[];verticalAlign=top;labelBackgroundColor=none;horizontal=0;spacingTop=-15;" parent="1" vertex="1">
          <mxGeometry x="51" y="385" width="40" height="610" as="geometry" />
        </mxCell>
        <mxCell id="DVu48KI71VsZCIkEHZR0-19" value="&lt;div&gt;160&lt;/div&gt;" style="shape=dimension;direction=south;whiteSpace=wrap;html=1;align=center;points=[];verticalAlign=top;labelBackgroundColor=none;horizontal=0;spacingTop=-15;" parent="1" vertex="1">
          <mxGeometry x="51" y="225" width="40" height="160" as="geometry" />
        </mxCell>
        <mxCell id="DVu48KI71VsZCIkEHZR0-23" value="" style="shape=ext;double=1;rounded=0;whiteSpace=wrap;html=1;fillColor=#E1D5E7;" parent="1" vertex="1">
          <mxGeometry x="111" y="385" width="510" height="30" as="geometry" />
        </mxCell>
        <mxCell id="DVu48KI71VsZCIkEHZR0-24" value="" style="shape=ext;double=1;rounded=0;whiteSpace=wrap;html=1;fillColor=#fff2cc;strokeColor=#d6b656;" parent="1" vertex="1">
          <mxGeometry x="111" y="415" width="20" height="580" as="geometry" />
        </mxCell>
        <mxCell id="DVu48KI71VsZCIkEHZR0-25" value="" style="shape=ext;double=1;rounded=0;whiteSpace=wrap;html=1;fillColor=#fff2cc;strokeColor=#d6b656;" parent="1" vertex="1">
          <mxGeometry x="601" y="415" width="20" height="580" as="geometry" />
        </mxCell>
        <mxCell id="DVu48KI71VsZCIkEHZR0-26" value="" style="shape=ext;double=1;rounded=0;whiteSpace=wrap;html=1;fillColor=#fff2cc;strokeColor=#d6b656;rotation=90;" parent="1" vertex="1">
          <mxGeometry x="356" y="750" width="20" height="470" as="geometry" />
        </mxCell>
        <mxCell id="DVu48KI71VsZCIkEHZR0-4" value="" style="rounded=0;whiteSpace=wrap;html=1;" parent="1" vertex="1">
          <mxGeometry x="431" y="225" width="30" height="780" as="geometry" />
        </mxCell>
        <mxCell id="0tehll-YJkzTE9BKKPZJ-1" value="&lt;div&gt;785&lt;/div&gt;" style="shape=dimension;direction=south;whiteSpace=wrap;html=1;align=center;points=[];verticalAlign=top;labelBackgroundColor=none;horizontal=0;spacingTop=-15;" parent="1" vertex="1">
          <mxGeometry x="11" y="225" width="40" height="770" as="geometry" />
        </mxCell>
        <mxCell id="0tehll-YJkzTE9BKKPZJ-6" value="" style="verticalLabelPosition=bottom;html=1;verticalAlign=top;align=center;shape=mxgraph.floorplan.elevator;" parent="1" vertex="1">
          <mxGeometry x="431" y="585" width="30" height="30" as="geometry" />
        </mxCell>
        <mxCell id="0tehll-YJkzTE9BKKPZJ-7" value="385" style="shape=dimension;direction=north;whiteSpace=wrap;html=1;align=center;points=[];verticalAlign=bottom;labelBackgroundColor=none;horizontal=0;spacingBottom=3;" parent="1" vertex="1">
          <mxGeometry x="651" y="615" width="40" height="380" as="geometry" />
        </mxCell>
        <mxCell id="0tehll-YJkzTE9BKKPZJ-8" value="365" style="shape=dimension;direction=north;whiteSpace=wrap;html=1;align=center;points=[];verticalAlign=bottom;labelBackgroundColor=none;horizontal=0;spacingBottom=3;" parent="1" vertex="1">
          <mxGeometry x="651" y="224" width="40" height="361" as="geometry" />
        </mxCell>
        <mxCell id="0tehll-YJkzTE9BKKPZJ-10" value="30" style="shape=dimension;direction=north;whiteSpace=wrap;html=1;align=center;points=[];verticalAlign=bottom;labelBackgroundColor=none;horizontal=0;spacingBottom=3;" parent="1" vertex="1">
          <mxGeometry x="651" y="585" width="40" height="30" as="geometry" />
        </mxCell>
        <mxCell id="0tehll-YJkzTE9BKKPZJ-17" value="510" style="shape=dimension;direction=west;whiteSpace=wrap;html=1;align=center;points=[];verticalAlign=top;spacingTop=-15;labelBackgroundColor=none;" parent="1" vertex="1">
          <mxGeometry x="111" y="115" width="510" height="40" as="geometry" />
        </mxCell>
        <mxCell id="0tehll-YJkzTE9BKKPZJ-18" value="320" style="shape=dimension;direction=west;whiteSpace=wrap;html=1;align=center;points=[];verticalAlign=top;spacingTop=-15;labelBackgroundColor=none;" parent="1" vertex="1">
          <mxGeometry x="111" y="165" width="320" height="40" as="geometry" />
        </mxCell>
        <mxCell id="0tehll-YJkzTE9BKKPZJ-20" value="160" style="shape=dimension;direction=west;whiteSpace=wrap;html=1;align=center;points=[];verticalAlign=top;spacingTop=-15;labelBackgroundColor=none;" parent="1" vertex="1">
          <mxGeometry x="461" y="165" width="160" height="40" as="geometry" />
        </mxCell>
        <mxCell id="0tehll-YJkzTE9BKKPZJ-21" value="30" style="shape=dimension;direction=west;whiteSpace=wrap;html=1;align=center;points=[];verticalAlign=top;spacingTop=-15;labelBackgroundColor=none;" parent="1" vertex="1">
          <mxGeometry x="431" y="165" width="30" height="40" as="geometry" />
        </mxCell>
        <mxCell id="0tehll-YJkzTE9BKKPZJ-22" value="80" style="shape=dimension;whiteSpace=wrap;html=1;align=center;points=[];verticalAlign=bottom;spacingBottom=3;labelBackgroundColor=none;" parent="1" vertex="1">
          <mxGeometry x="111" y="1090.63" width="80" height="40" as="geometry" />
        </mxCell>
        <mxCell id="0tehll-YJkzTE9BKKPZJ-23" value="162" style="shape=dimension;whiteSpace=wrap;html=1;align=center;points=[];verticalAlign=bottom;spacingBottom=3;labelBackgroundColor=none;" parent="1" vertex="1">
          <mxGeometry x="191" y="1090.63" width="180" height="40" as="geometry" />
        </mxCell>
        <mxCell id="0tehll-YJkzTE9BKKPZJ-24" value="60" style="shape=dimension;whiteSpace=wrap;html=1;align=center;points=[];verticalAlign=bottom;spacingBottom=3;labelBackgroundColor=none;" parent="1" vertex="1">
          <mxGeometry x="371" y="1090.63" width="60" height="40" as="geometry" />
        </mxCell>
        <mxCell id="0tehll-YJkzTE9BKKPZJ-25" value="30" style="shape=dimension;whiteSpace=wrap;html=1;align=center;points=[];verticalAlign=bottom;spacingBottom=3;labelBackgroundColor=none;" parent="1" vertex="1">
          <mxGeometry x="431" y="1090.63" width="30" height="40" as="geometry" />
        </mxCell>
        <mxCell id="0tehll-YJkzTE9BKKPZJ-26" value="50" style="shape=dimension;whiteSpace=wrap;html=1;align=center;points=[];verticalAlign=bottom;spacingBottom=3;labelBackgroundColor=none;" parent="1" vertex="1">
          <mxGeometry x="571" y="1090.63" width="50" height="40" as="geometry" />
        </mxCell>
        <mxCell id="0tehll-YJkzTE9BKKPZJ-28" value="105" style="shape=dimension;whiteSpace=wrap;html=1;align=center;points=[];verticalAlign=bottom;spacingBottom=3;labelBackgroundColor=none;" parent="1" vertex="1">
          <mxGeometry x="461" y="1090.63" width="110" height="40" as="geometry" />
        </mxCell>
      </root>
    </mxGraphModel>
  </diagram>
</mxfile>
